<?xml version="1.0" standalone="no"?>
<!DOCTYPE svg PUBLIC "-//W3C//DTD SVG 20010904//EN"
 "http://www.w3.org/TR/2001/REC-SVG-20010904/DTD/svg10.dtd">
<svg version="1.0" xmlns="http://www.w3.org/2000/svg"
 width="215.000000pt" height="208.000000pt" viewBox="0 0 215.000000 208.000000"
 preserveAspectRatio="xMidYMid meet">

<g transform="translate(0.000000,208.000000) scale(0.100000,-0.100000)"
fill="#000000" stroke="none">
<path d="M484 1726 c-17 -8 -42 -29 -55 -47 -22 -32 -24 -43 -24 -166 0 -117
2 -135 21 -160 37 -50 77 -63 197 -63 124 0 163 12 198 61 22 32 24 43 24 164
0 121 -2 132 -24 164 -13 18 -39 40 -57 47 -44 19 -237 18 -280 0z"/>
<path d="M914 1271 c-59 -36 -64 -52 -64 -196 0 -113 3 -134 20 -163 30 -49
71 -62 202 -62 189 0 218 30 218 223 0 193 -24 217 -220 217 -105 0 -130 -3
-156 -19z"/>
<path d="M1361 832 c-57 -29 -71 -69 -71 -205 0 -128 9 -159 56 -196 24 -19
40 -21 167 -21 l139 0 39 39 39 39 0 133 c0 153 -13 189 -75 215 -52 21 -249
19 -294 -4z"/>
</g>
</svg>
